<?xml version='1.0' encoding='UTF-8' standalone='no'?>
<svg xmlns:xlink="http://www.w3.org/1999/xlink" width="576pt" xmlns="http://www.w3.org/2000/svg" height="432pt" viewBox="0 0 576 432">
 <title>gl2ps_renderer figure</title>
 <desc>
Creator: GL2PS 1.4.0, (C) 1999-2017 C. Geuzaine
For: Octave
CreationDate: Thu Sep 24 20:33:01 2020
</desc>
 <defs/>
 <polygon fill="#ffffff" points="0,0 576,0 576,432 0,432"/>
 <g>
  <polygon shape-rendering="crispEdges" fill="#ffffff" points="0,432 576,432 576,0 0,0"/>
  <clipPath id="cp00576432">
   <polygon points="0,432 576,432 576,0 0,0"/>
  </clipPath>
  <g clip-path="url(#cp00576432)">
   <polygon shape-rendering="crispEdges" fill="#ffffff" points="74.88,384.48 521.28,384.48 521.28,32.4 74.88,32.4"/>
   <polyline stroke-width="0.5" stroke-linecap="butt" fill="none" stroke-linejoin="miter" stroke="#262626" points="74.88,384.48 74.88,380.015"/>
   <polyline stroke-width="0.5" stroke-linecap="butt" fill="none" stroke-linejoin="miter" stroke="#262626" points="74.88,32.4 74.88,36.865"/>
   <polyline stroke-width="0.5" stroke-linecap="butt" fill="none" stroke-linejoin="miter" stroke="#262626" points="164.16,384.48 164.16,380.015"/>
   <polyline stroke-width="0.5" stroke-linecap="butt" fill="none" stroke-linejoin="miter" stroke="#262626" points="164.16,32.4 164.16,36.865"/>
   <polyline stroke-width="0.5" stroke-linecap="butt" fill="none" stroke-linejoin="miter" stroke="#262626" points="253.44,384.48 253.44,380.015"/>
   <polyline stroke-width="0.5" stroke-linecap="butt" fill="none" stroke-linejoin="miter" stroke="#262626" points="253.44,32.4 253.44,36.865"/>
   <polyline stroke-width="0.5" stroke-linecap="butt" fill="none" stroke-linejoin="miter" stroke="#262626" points="342.72,384.48 342.72,380.015"/>
   <polyline stroke-width="0.5" stroke-linecap="butt" fill="none" stroke-linejoin="miter" stroke="#262626" points="342.72,32.4 342.72,36.865"/>
   <polyline stroke-width="0.5" stroke-linecap="butt" fill="none" stroke-linejoin="miter" stroke="#262626" points="432,384.48 432,380.015"/>
   <polyline stroke-width="0.5" stroke-linecap="butt" fill="none" stroke-linejoin="miter" stroke="#262626" points="432,32.4 432,36.865"/>
   <polyline stroke-width="0.5" stroke-linecap="butt" fill="none" stroke-linejoin="miter" stroke="#262626" points="521.28,384.48 521.28,380.015"/>
   <polyline stroke-width="0.5" stroke-linecap="butt" fill="none" stroke-linejoin="miter" stroke="#262626" points="521.28,32.4 521.28,36.865"/>
   <text font-weight="normal" transform="translate(71.88,399.982) rotate(-0,3,-8)" font-family="FreeSans" xml:space="preserve" font-size="10" font-style="normal">
    <tspan fill="rgb(38,38,38)" y="-0" x="0 ">0</tspan>
   </text>
   <text font-weight="normal" transform="translate(158.16,399.982) rotate(-0,6,-8)" font-family="FreeSans" xml:space="preserve" font-size="10" font-style="normal">
    <tspan fill="rgb(38,38,38)" y="-0" x="0 6 ">10</tspan>
   </text>
   <text font-weight="normal" transform="translate(247.44,399.982) rotate(-0,6,-8)" font-family="FreeSans" xml:space="preserve" font-size="10" font-style="normal">
    <tspan fill="rgb(38,38,38)" y="-0" x="0 6 ">20</tspan>
   </text>
   <text font-weight="normal" transform="translate(336.72,399.982) rotate(-0,6,-8)" font-family="FreeSans" xml:space="preserve" font-size="10" font-style="normal">
    <tspan fill="rgb(38,38,38)" y="-0" x="0 6 ">30</tspan>
   </text>
   <text font-weight="normal" transform="translate(426,399.982) rotate(-0,6,-8)" font-family="FreeSans" xml:space="preserve" font-size="10" font-style="normal">
    <tspan fill="rgb(38,38,38)" y="-0" x="0 6 ">40</tspan>
   </text>
   <text font-weight="normal" transform="translate(515.28,399.982) rotate(-0,6,-8)" font-family="FreeSans" xml:space="preserve" font-size="10" font-style="normal">
    <tspan fill="rgb(38,38,38)" y="-0" x="0 6 ">50</tspan>
   </text>
   <polyline stroke-width="0.5" stroke-linecap="butt" fill="none" stroke-linejoin="miter" stroke="#262626" points="74.88,384.48 79.348,384.48"/>
   <polyline stroke-width="0.5" stroke-linecap="butt" fill="none" stroke-linejoin="miter" stroke="#262626" points="521.28,384.48 516.812,384.48"/>
   <polyline stroke-width="0.5" stroke-linecap="butt" fill="none" stroke-linejoin="miter" stroke="#262626" points="74.88,325.8 79.348,325.8"/>
   <polyline stroke-width="0.5" stroke-linecap="butt" fill="none" stroke-linejoin="miter" stroke="#262626" points="521.28,325.8 516.812,325.8"/>
   <polyline stroke-width="0.5" stroke-linecap="butt" fill="none" stroke-linejoin="miter" stroke="#262626" points="74.88,267.12 79.348,267.12"/>
   <polyline stroke-width="0.5" stroke-linecap="butt" fill="none" stroke-linejoin="miter" stroke="#262626" points="521.28,267.12 516.812,267.12"/>
   <polyline stroke-width="0.5" stroke-linecap="butt" fill="none" stroke-linejoin="miter" stroke="#262626" points="74.88,208.44 79.348,208.44"/>
   <polyline stroke-width="0.5" stroke-linecap="butt" fill="none" stroke-linejoin="miter" stroke="#262626" points="521.28,208.44 516.812,208.44"/>
   <polyline stroke-width="0.5" stroke-linecap="butt" fill="none" stroke-linejoin="miter" stroke="#262626" points="74.88,149.76 79.348,149.76"/>
   <polyline stroke-width="0.5" stroke-linecap="butt" fill="none" stroke-linejoin="miter" stroke="#262626" points="521.28,149.76 516.812,149.76"/>
   <polyline stroke-width="0.5" stroke-linecap="butt" fill="none" stroke-linejoin="miter" stroke="#262626" points="74.88,91.08 79.348,91.08"/>
   <polyline stroke-width="0.5" stroke-linecap="butt" fill="none" stroke-linejoin="miter" stroke="#262626" points="521.28,91.08 516.812,91.08"/>
   <polyline stroke-width="0.5" stroke-linecap="butt" fill="none" stroke-linejoin="miter" stroke="#262626" points="74.88,32.4 79.348,32.4"/>
   <polyline stroke-width="0.5" stroke-linecap="butt" fill="none" stroke-linejoin="miter" stroke="#262626" points="521.28,32.4 516.812,32.4"/>
   <text font-weight="normal" transform="translate(63.8755,388.48) rotate(-0,6,-4)" font-family="FreeSans" xml:space="preserve" font-size="10" font-style="normal">
    <tspan fill="rgb(38,38,38)" y="-0" x="0 ">0</tspan>
   </text>
   <text font-weight="normal" transform="translate(57.8755,329.8) rotate(-0,12,-4)" font-family="FreeSans" xml:space="preserve" font-size="10" font-style="normal">
    <tspan fill="rgb(38,38,38)" y="-0" x="0 6 ">50</tspan>
   </text>
   <text font-weight="normal" transform="translate(51.8755,271.12) rotate(-0,18,-4)" font-family="FreeSans" xml:space="preserve" font-size="10" font-style="normal">
    <tspan fill="rgb(38,38,38)" y="-0" x="0 6 12 ">100</tspan>
   </text>
   <text font-weight="normal" transform="translate(51.8755,212.44) rotate(-0,18,-4)" font-family="FreeSans" xml:space="preserve" font-size="10" font-style="normal">
    <tspan fill="rgb(38,38,38)" y="-0" x="0 6 12 ">150</tspan>
   </text>
   <text font-weight="normal" transform="translate(51.8755,153.76) rotate(-0,18,-4)" font-family="FreeSans" xml:space="preserve" font-size="10" font-style="normal">
    <tspan fill="rgb(38,38,38)" y="-0" x="0 6 12 ">200</tspan>
   </text>
   <text font-weight="normal" transform="translate(51.8755,95.08) rotate(-0,18,-4)" font-family="FreeSans" xml:space="preserve" font-size="10" font-style="normal">
    <tspan fill="rgb(38,38,38)" y="-0" x="0 6 12 ">250</tspan>
   </text>
   <text font-weight="normal" transform="translate(51.8755,36.4) rotate(-0,18,-4)" font-family="FreeSans" xml:space="preserve" font-size="10" font-style="normal">
    <tspan fill="rgb(38,38,38)" y="-0" x="0 6 12 ">300</tspan>
   </text>
   <polyline stroke-width="0.5" stroke-linecap="square" fill="none" stroke-linejoin="miter" stroke="#262626" stroke-dasharray="16,0" points="74.88,384.48 521.28,384.48"/>
   <polyline stroke-width="0.5" stroke-linecap="square" fill="none" stroke-linejoin="miter" stroke="#262626" stroke-dasharray="16,0" points="74.88,32.4 521.28,32.4"/>
   <polyline stroke-width="0.5" stroke-linecap="square" fill="none" stroke-linejoin="miter" stroke="#262626" stroke-dasharray="16,0" points="74.88,384.48 74.88,32.4"/>
   <polyline stroke-width="0.5" stroke-linecap="square" fill="none" stroke-linejoin="miter" stroke="#262626" stroke-dasharray="16,0" points="521.28,384.48 521.28,32.4"/>
   <polyline stroke-width="0.5" stroke-linecap="butt" fill="none" stroke-linejoin="round" stroke="#0071bc" points="74.88,384.48 75.7728,384.48 76.6656,384.48 77.5584,384.48 78.4512,384.48 79.344,384.48 80.2368,384.48 81.1296,384.48 82.0224,384.48 82.9152,384.48 83.808,384.48 84.7008,384.48 85.5936,384.48 86.4864,384.48 87.3792,384.48 88.272,384.48 89.1648,384.48 90.0576,384.48 90.9504,384.48 91.8432,384.48 92.736,384.48 93.6288,384.48 94.5216,384.48 95.4144,384.48 96.3072,384.48 97.2,384.48 98.0928,384.48 98.9856,384.48 99.8784,384.48 100.771,384.48 101.664,384.48 102.557,384.48 103.45,384.48 104.342,384.48 105.235,384.48 106.128,384.48 107.021,384.48 107.914,384.48 108.806,384.48 109.699,384.48 110.592,384.48 111.485,384.48 112.378,384.48 113.27,384.48 114.163,384.48 115.056,384.48 115.949,384.48 116.842,384.48 117.734,384.48 118.627,384.48 119.52,384.48 120.413,384.48 121.306,384.48 122.198,384.48 123.091,384.48 123.984,384.48 124.877,384.48 125.77,384.48 126.662,384.48 127.555,384.48 128.448,384.48 129.341,384.48 130.234,384.48 131.126,384.48 132.019,384.48 132.912,384.48 133.805,384.48 134.698,384.48 135.59,384.48 136.483,384.48 137.376,384.48 138.269,384.48 139.162,384.48 140.054,384.48 140.947,384.48 141.84,384.48 142.733,384.48 143.626,384.48 144.518,384.48 145.411,384.48 146.304,384.48 147.197,384.48 148.09,384.48 148.982,384.48 149.875,384.48 150.768,384.48 151.661,384.48 152.554,384.48 153.446,384.48 154.339,384.48 155.232,384.48 156.125,384.48 157.018,384.48 157.91,384.48 158.803,384.48 159.696,384.48 160.589,384.48 161.482,384.48 162.374,384.48 163.267,384.48 164.16,384.48 165.053,384.48 165.946,384.48 166.838,384.48 167.731,384.48 168.624,384.48 169.517,384.48 170.41,384.48 171.302,384.48 172.195,384.48 173.088,384.48 173.981,384.48 174.874,384.48 175.766,384.48 176.659,384.48 177.552,384.48 178.445,384.48 179.338,384.48 180.23,384.48 181.123,384.48 182.016,384.48 182.909,384.48 183.802,384.48 184.694,384.48 185.587,384.48 186.48,384.48 187.373,384.48 188.266,384.48 189.158,384.48 190.051,384.48 190.944,384.48 191.837,384.48 192.73,384.48 193.622,384.48 194.515,384.48 195.408,384.48 196.301,384.48 197.194,384.48 198.086,384.48 198.979,384.48 199.872,384.48 200.765,384.48 201.658,384.48 202.55,384.48 203.443,384.48 204.336,384.48 205.229,384.48 206.122,384.48 207.014,384.48 207.907,384.48 208.8,91.08 209.693,384.48 210.586,384.48 211.478,384.48 212.371,384.48 213.264,384.48 214.157,384.48 215.05,384.48 215.942,384.48 216.835,384.48 217.728,384.48 218.621,384.48 219.514,384.48 220.406,384.48 221.299,384.48 222.192,384.48 223.085,384.48 223.978,384.48 224.87,384.48 225.763,384.48 226.656,384.48 227.549,384.48 228.442,384.48 229.334,384.48 230.227,384.48 231.12,384.48 232.013,384.48 232.906,384.48 233.798,384.48 234.691,384.48 235.584,384.48 236.477,384.48 237.37,384.48 238.262,384.48 239.155,384.48 240.048,384.48 240.941,384.48 241.834,384.48 242.726,384.48 243.619,384.48 244.512,384.48 245.405,384.48 246.298,384.48 247.19,384.48 248.083,384.48 248.976,384.48 249.869,384.48 250.762,384.48 251.654,384.48 252.547,384.48 253.44,91.08 254.333,384.48 255.226,384.48 256.118,384.48 257.011,384.48 257.904,384.48 258.797,384.48 259.69,384.48 260.582,384.48 261.475,384.48 262.368,384.48 263.261,384.48 264.154,384.48 265.046,384.48 265.939,384.48 266.832,384.48 267.725,384.48 268.618,384.48 269.51,384.48 270.403,384.48 271.296,384.48 272.189,384.48 273.082,384.48 273.974,384.48 274.867,384.48 275.76,384.48 276.653,384.48 277.546,384.48 278.438,384.48 279.331,384.48 280.224,384.48 281.117,384.48 282.01,384.48 282.902,384.48 283.795,384.48 284.688,384.48 285.581,384.48 286.474,384.48 287.366,384.48 288.259,384.48 289.152,384.48 290.045,384.48 290.938,384.48 291.83,384.48 292.723,384.48 293.616,384.48 294.509,384.48 295.402,384.48 296.294,384.48 297.187,384.48 298.08,384.48 298.973,384.48 299.866,384.48 300.758,384.48 301.651,384.48 302.544,384.48 303.437,384.48 304.33,384.48 305.222,384.48 306.115,384.48 307.008,384.48 307.901,384.48 308.794,384.48 309.686,384.48 310.579,384.48 311.472,384.48 312.365,384.48 313.258,384.48 314.15,384.48 315.043,384.48 315.936,384.48 316.829,384.48 317.722,384.48 318.614,384.48 319.507,384.48 320.4,384.48 321.293,384.48 322.186,384.48 323.078,384.48 323.971,384.48 324.864,384.48 325.757,384.48 326.65,384.48 327.542,384.48 328.435,384.48 329.328,384.48 330.221,384.48 331.114,384.48 332.006,384.48 332.899,384.48 333.792,384.48 334.685,384.48 335.578,384.48 336.47,384.48 337.363,384.48 338.256,384.48 339.149,384.48 340.042,384.48 340.934,384.48 341.827,384.48 342.72,91.08 343.613,384.48 344.506,384.48 345.398,384.48 346.291,384.48 347.184,384.48 348.077,384.48 348.97,384.48 349.862,384.48 350.755,384.48 351.648,384.48 352.541,384.48 353.434,384.48 354.326,384.48 355.219,384.48 356.112,384.48 357.005,384.48 357.898,384.48 358.79,384.48 359.683,384.48 360.576,384.48 361.469,384.48 362.362,384.48 363.254,384.48 364.147,384.48 365.04,384.48 365.933,384.48 366.826,384.48 367.718,384.48 368.611,384.48 369.504,384.48 370.397,384.48 371.29,384.48 372.182,384.48 373.075,384.48 373.968,384.48 374.861,384.48 375.754,384.48 376.646,384.48 377.539,384.48 378.432,384.48 379.325,384.48 380.218,384.48 381.11,384.48 382.003,384.48 382.896,384.48 383.789,384.48 384.682,384.48 385.574,384.48 386.467,384.48 387.36,91.08 388.253,384.48 389.146,384.48 390.038,384.48 390.931,384.48 391.824,384.48 392.717,384.48 393.61,384.48 394.502,384.48 395.395,384.48 396.288,384.48 397.181,384.48 398.074,384.48 398.966,384.48 399.859,384.48 400.752,384.48 401.645,384.48 402.538,384.48 403.43,384.48 404.323,384.48 405.216,384.48 406.109,384.48 407.002,384.48 407.894,384.48 408.787,384.48 409.68,384.48 410.573,384.48 411.466,384.48 412.358,384.48 413.251,384.48 414.144,384.48 415.037,384.48 415.93,384.48 416.822,384.48 417.715,384.48 418.608,384.48 419.501,384.48 420.394,384.48 421.286,384.48 422.179,384.48 423.072,384.48 423.965,384.48 424.858,384.48 425.75,384.48 426.643,384.48 427.536,384.48 428.429,384.48 429.322,384.48 430.214,384.48 431.107,384.48 432,384.48 432.893,384.48 433.786,384.48 434.678,384.48 435.571,384.48 436.464,384.48 437.357,384.48 438.25,384.48 439.142,384.48 440.035,384.48 440.928,384.48 441.821,384.48 442.714,384.48 443.606,384.48 444.499,384.48 445.392,384.48 446.285,384.48 447.178,384.48 448.07,384.48 448.963,384.48 449.856,384.48 450.749,384.48 451.642,384.48 452.534,384.48 453.427,384.48 454.32,384.48 455.213,384.48 456.106,384.48 456.998,384.48 457.891,384.48 458.784,384.48 459.677,384.48 460.57,384.48 461.462,384.48 462.355,384.48 463.248,384.48 464.141,384.48 465.034,384.48 465.926,384.48 466.819,384.48 467.712,384.48 468.605,384.48 469.498,384.48 470.39,384.48 471.283,384.48 472.176,384.48 473.069,384.48 473.962,384.48 474.854,384.48 475.747,384.48 476.64,384.48 477.533,384.48 478.426,384.48 479.318,384.48 480.211,384.48 481.104,384.48 481.997,384.48 482.89,384.48 483.782,384.48 484.675,384.48 485.568,384.48 486.461,384.48 487.354,384.48 488.246,384.48 489.139,384.48 490.032,384.48 490.925,384.48 491.818,384.48 492.71,384.48 493.603,384.48 494.496,384.48 495.389,384.48 496.282,384.48 497.174,384.48 498.067,384.48 498.96,384.48 499.853,384.48 500.746,384.48 501.638,384.48 502.531,384.48 503.424,384.48 504.317,384.48 505.21,384.48 506.102,384.48 506.995,384.48 507.888,384.48 508.781,384.48 509.674,384.48 510.566,384.48 511.459,384.48 512.352,384.48 513.245,384.48 514.138,384.48 515.03,384.48 515.923,384.48 516.816,384.48 517.709,384.48 518.602,384.48 519.494,384.48 520.387,384.48"/>
  </g>
 </g>
</svg>
