<?xml version='1.0' encoding='UTF-8' standalone='no'?>
<svg xmlns:xlink="http://www.w3.org/1999/xlink" viewBox="0 0 576 432" xmlns="http://www.w3.org/2000/svg" width="576pt" height="432pt">
 <title>gl2ps_renderer figure</title>
 <desc>
Creator: GL2PS 1.4.0, (C) 1999-2017 C. Geuzaine
For: Octave
CreationDate: Thu Sep 24 20:34:38 2020
</desc>
 <defs/>
 <polygon fill="#ffffff" points="0,0 576,0 576,432 0,432"/>
 <g>
  <polygon shape-rendering="crispEdges" fill="#ffffff" points="0,432 576,432 576,0 0,0"/>
  <clipPath id="cp00576432">
   <polygon points="0,432 576,432 576,0 0,0"/>
  </clipPath>
  <g clip-path="url(#cp00576432)">
   <polygon shape-rendering="crispEdges" fill="#ffffff" points="74.88,384.48 521.28,384.48 521.28,32.4 74.88,32.4"/>
   <polyline stroke="#262626" fill="none" stroke-linecap="butt" stroke-width="0.5" stroke-linejoin="miter" points="161.16,384.48 161.16,380.015"/>
   <polyline stroke="#262626" fill="none" stroke-linecap="butt" stroke-width="0.5" stroke-linejoin="miter" points="161.16,32.4 161.16,36.865"/>
   <polyline stroke="#262626" fill="none" stroke-linecap="butt" stroke-width="0.5" stroke-linejoin="miter" points="250.44,384.48 250.44,380.015"/>
   <polyline stroke="#262626" fill="none" stroke-linecap="butt" stroke-width="0.5" stroke-linejoin="miter" points="250.44,32.4 250.44,36.865"/>
   <polyline stroke="#262626" fill="none" stroke-linecap="butt" stroke-width="0.5" stroke-linejoin="miter" points="339.72,384.48 339.72,380.015"/>
   <polyline stroke="#262626" fill="none" stroke-linecap="butt" stroke-width="0.5" stroke-linejoin="miter" points="339.72,32.4 339.72,36.865"/>
   <polyline stroke="#262626" fill="none" stroke-linecap="butt" stroke-width="0.5" stroke-linejoin="miter" points="429,384.48 429,380.015"/>
   <polyline stroke="#262626" fill="none" stroke-linecap="butt" stroke-width="0.5" stroke-linejoin="miter" points="429,32.4 429,36.865"/>
   <polyline stroke="#262626" fill="none" stroke-linecap="butt" stroke-width="0.5" stroke-linejoin="miter" points="518.28,384.48 518.28,380.015"/>
   <polyline stroke="#262626" fill="none" stroke-linecap="butt" stroke-width="0.5" stroke-linejoin="miter" points="518.28,32.4 518.28,36.865"/>
   <text font-weight="normal" transform="translate(158.16,399.982) rotate(-0,3,-8)" font-style="normal" xml:space="preserve" font-family="FreeSans" font-size="10">
    <tspan x="0 " y="-0" fill="rgb(38,38,38)">2</tspan>
   </text>
   <text font-weight="normal" transform="translate(247.44,399.982) rotate(-0,3,-8)" font-style="normal" xml:space="preserve" font-family="FreeSans" font-size="10">
    <tspan x="0 " y="-0" fill="rgb(38,38,38)">4</tspan>
   </text>
   <text font-weight="normal" transform="translate(336.72,399.982) rotate(-0,3,-8)" font-style="normal" xml:space="preserve" font-family="FreeSans" font-size="10">
    <tspan x="0 " y="-0" fill="rgb(38,38,38)">6</tspan>
   </text>
   <text font-weight="normal" transform="translate(426,399.982) rotate(-0,3,-8)" font-style="normal" xml:space="preserve" font-family="FreeSans" font-size="10">
    <tspan x="0 " y="-0" fill="rgb(38,38,38)">8</tspan>
   </text>
   <text font-weight="normal" transform="translate(512.28,399.982) rotate(-0,6,-8)" font-style="normal" xml:space="preserve" font-family="FreeSans" font-size="10">
    <tspan x="0 6 " y="-0" fill="rgb(38,38,38)">10</tspan>
   </text>
   <polyline stroke="#262626" fill="none" stroke-linecap="butt" stroke-width="0.5" stroke-linejoin="miter" points="74.88,301.411 79.348,301.411"/>
   <polyline stroke="#262626" fill="none" stroke-linecap="butt" stroke-width="0.5" stroke-linejoin="miter" points="521.28,301.411 516.812,301.411"/>
   <polyline stroke="#262626" fill="none" stroke-linecap="butt" stroke-width="0.5" stroke-linejoin="miter" points="74.88,213.391 79.348,213.391"/>
   <polyline stroke="#262626" fill="none" stroke-linecap="butt" stroke-width="0.5" stroke-linejoin="miter" points="521.28,213.391 516.812,213.391"/>
   <polyline stroke="#262626" fill="none" stroke-linecap="butt" stroke-width="0.5" stroke-linejoin="miter" points="74.88,125.371 79.348,125.371"/>
   <polyline stroke="#262626" fill="none" stroke-linecap="butt" stroke-width="0.5" stroke-linejoin="miter" points="521.28,125.371 516.812,125.371"/>
   <polyline stroke="#262626" fill="none" stroke-linecap="butt" stroke-width="0.5" stroke-linejoin="miter" points="74.88,37.351 79.348,37.351"/>
   <polyline stroke="#262626" fill="none" stroke-linecap="butt" stroke-width="0.5" stroke-linejoin="miter" points="521.28,37.351 516.812,37.351"/>
   <text font-weight="normal" transform="translate(60.8755,305.411) rotate(-0,9,-4)" font-style="normal" xml:space="preserve" font-family="FreeSans" font-size="10">
    <tspan x="0 3 " y="-0" fill="rgb(38,38,38)">-1</tspan>
   </text>
   <text font-weight="normal" transform="translate(63.8755,217.391) rotate(-0,6,-4)" font-style="normal" xml:space="preserve" font-family="FreeSans" font-size="10">
    <tspan x="0 " y="-0" fill="rgb(38,38,38)">0</tspan>
   </text>
   <text font-weight="normal" transform="translate(63.8755,129.371) rotate(-0,6,-4)" font-style="normal" xml:space="preserve" font-family="FreeSans" font-size="10">
    <tspan x="0 " y="-0" fill="rgb(38,38,38)">1</tspan>
   </text>
   <text font-weight="normal" transform="translate(63.8755,41.351) rotate(-0,6,-4)" font-style="normal" xml:space="preserve" font-family="FreeSans" font-size="10">
    <tspan x="0 " y="-0" fill="rgb(38,38,38)">2</tspan>
   </text>
   <polyline stroke-dasharray="16,0" stroke="#262626" fill="none" stroke-linecap="square" stroke-width="0.5" stroke-linejoin="miter" points="74.88,384.48 521.28,384.48"/>
   <polyline stroke-dasharray="16,0" stroke="#262626" fill="none" stroke-linecap="square" stroke-width="0.5" stroke-linejoin="miter" points="74.88,32.4 521.28,32.4"/>
   <polyline stroke-dasharray="16,0" stroke="#262626" fill="none" stroke-linecap="square" stroke-width="0.5" stroke-linejoin="miter" points="74.88,384.48 74.88,32.4"/>
   <polyline stroke-dasharray="16,0" stroke="#262626" fill="none" stroke-linecap="square" stroke-width="0.5" stroke-linejoin="miter" points="521.28,384.48 521.28,32.4"/>
   <polyline stroke="#0071bc" fill="none" stroke-linecap="butt" stroke-width="0.5" stroke-linejoin="round" points="74.4336,204.82 74.5584,181.416 75.4512,181.416 76.344,213.391 77.2368,245.366 78.1296,245.366 79.0224,77.9421 79.9152,348.84 80.808,213.391 81.7008,77.9421 82.5936,348.84 83.4864,181.416 84.3792,181.416 85.272,213.391 86.1648,245.366 87.0576,245.366 87.9504,77.9421 88.8432,348.84 89.736,213.391 90.6288,77.9421 91.5216,348.84 92.4144,181.416 93.3072,181.416 94.2,213.391 95.0928,245.366 95.9856,245.366 96.8784,77.9421 97.7712,348.84 98.664,213.391 99.5568,77.9421 100.45,348.84 101.342,181.416 102.235,181.416 103.128,213.391 104.021,245.366 104.914,245.366 105.806,77.9421 106.699,348.84 107.592,213.391 108.485,77.9421 109.378,348.84 110.27,181.416 111.163,181.416 112.056,213.391 112.949,245.366 113.842,245.366 114.734,77.9421 115.627,348.84 116.52,213.391 117.413,77.9421 118.306,348.84 119.198,181.416 120.091,181.416 120.984,213.391 121.877,245.366 122.77,245.366 123.662,77.9421 124.555,348.84 125.448,213.391 126.341,77.9421 127.234,348.84 128.126,181.416 129.019,181.416 129.912,213.391 130.805,245.366 131.698,245.366 132.59,77.9421 133.483,348.84 134.376,213.391 135.269,77.9421 136.162,348.84 137.054,181.416 137.947,181.416 138.84,213.391 139.733,245.366 140.626,245.366 141.518,77.9421 142.411,348.84 143.304,213.391 144.197,77.9421 145.09,348.84 145.982,181.416 146.875,181.416 147.768,213.391 148.661,245.366 149.554,245.366 150.446,77.9421 151.339,348.84 152.232,213.391 153.125,77.9421 154.018,348.84 154.91,181.416 155.803,181.416 156.696,213.391 157.589,245.366 158.482,245.366 159.374,77.9421 160.267,348.84 161.16,213.391 162.053,77.9421 162.946,348.84 163.838,181.416 164.731,181.416 165.624,213.391 166.517,245.366 167.41,245.366 168.302,77.9421 169.195,348.84 170.088,213.391 170.981,77.9421 171.874,348.84 172.766,181.416 173.659,181.416 174.552,213.391 175.445,245.366 176.338,245.366 177.23,77.9421 178.123,348.84 179.016,213.391 179.909,77.9421 180.802,348.84 181.694,181.416 182.587,181.416 183.48,213.391 184.373,245.366 185.266,245.366 186.158,77.9421 187.051,348.84 187.944,213.391 188.837,77.9421 189.73,348.84 190.622,181.416 191.515,181.416 192.408,213.391 193.301,245.366 194.194,245.366 195.086,77.9421 195.979,348.84 196.872,213.391 197.765,77.9421 198.658,348.84 199.55,181.416 200.443,181.416 201.336,213.391 202.229,245.366 203.122,245.366 204.014,77.9421 204.907,348.84 205.8,213.391 206.693,77.9421 207.586,348.84 208.478,181.416 209.371,181.416 210.264,213.391 211.157,245.366 212.05,245.366 212.942,77.9421 213.835,348.84 214.728,213.391 215.621,77.9421 216.514,348.84 217.406,181.416 218.299,181.416 219.192,213.391 220.085,245.366 220.978,245.366 221.87,77.9421 222.763,348.84 223.656,213.391 224.549,77.9421 225.442,348.84 226.334,181.416 227.227,181.416 228.12,213.391 229.013,245.366 229.906,245.366 230.798,77.9421 231.691,348.84 232.584,213.391 233.477,77.9421 234.37,348.84 235.262,181.416 236.155,181.416 237.048,213.391 237.941,245.366 238.834,245.366 239.726,77.9421 240.619,348.84 241.512,213.391 242.405,77.9421 243.298,348.84 244.19,181.416 245.083,181.416 245.976,213.391 246.869,245.366 247.762,245.366 248.654,77.9421 249.547,348.84 250.44,213.391 251.333,77.9421 252.226,348.84 253.118,181.416 254.011,181.416 254.904,213.391 255.797,245.366 256.69,245.366 257.582,77.9421 258.475,348.84 259.368,213.391 260.261,77.9421 261.154,348.84 262.046,181.416 262.939,181.416 263.832,213.391 264.725,245.366 265.618,245.366 266.51,77.9421 267.403,348.84 268.296,213.391 269.189,77.9421 270.082,348.84 270.974,181.416 271.867,181.416 272.76,213.391 273.653,245.366 274.546,245.366 275.438,77.9421 276.331,348.84 277.224,213.391 278.117,77.9421 279.01,348.84 279.902,181.416 280.795,181.416 281.688,213.391 282.581,245.366 283.474,245.366 284.366,77.9421 285.259,348.84 286.152,213.391 287.045,77.9421 287.938,348.84 288.83,181.416 289.723,181.416 290.616,213.391 291.509,245.366 292.402,245.366 293.294,77.9421 294.187,348.84 295.08,213.391 295.973,77.9421 296.866,348.84 297.758,181.416 298.651,181.416 299.544,213.391 300.437,245.366 301.33,245.366 302.222,77.9421 303.115,348.84 304.008,213.391 304.901,77.9421 305.794,348.84 306.686,181.416 307.579,181.416 308.472,213.391 309.365,245.366 310.258,245.366 311.15,77.9421 312.043,348.84 312.936,213.391 313.829,77.9421 314.722,348.84 315.614,181.416 316.507,181.416 317.4,213.391 318.293,245.366 319.186,245.366 320.078,77.9421 320.971,348.84 321.864,213.391 322.757,77.9421 323.65,348.84 324.542,181.416 325.435,181.416 326.328,213.391 327.221,245.366 328.114,245.366 329.006,77.9421 329.899,348.84 330.792,213.391 331.685,77.9421 332.578,348.84 333.47,181.416 334.363,181.416 335.256,213.391 336.149,245.366 337.042,245.366 337.934,77.9421 338.827,348.84 339.72,213.391 340.613,77.9421 341.506,348.84 342.398,181.416 343.291,181.416 344.184,213.391 345.077,245.366 345.97,245.366 346.862,77.9421 347.755,348.84 348.648,213.391 349.541,77.9421 350.434,348.84 351.326,181.416 352.219,181.416 353.112,213.391 354.005,245.366 354.898,245.366 355.79,77.9421 356.683,348.84 357.576,213.391 358.469,77.9421 359.362,348.84 360.254,181.416 361.147,181.416 362.04,213.391 362.933,245.366 363.826,245.366 364.718,77.9421 365.611,348.84 366.504,213.391 367.397,77.9421 368.29,348.84 369.182,181.416 370.075,181.416 370.968,213.391 371.861,245.366 372.754,245.366 373.646,77.9421 374.539,348.84 375.432,213.391 376.325,77.9421 377.218,348.84 378.11,181.416 379.003,181.416 379.896,213.391 380.789,245.366 381.682,245.366 382.574,77.9421 383.467,348.84 384.36,213.391 385.253,77.9421 386.146,348.84 387.038,181.416 387.931,181.416 388.824,213.391 389.717,245.366 390.61,245.366 391.502,77.9421 392.395,348.84 393.288,213.391 394.181,77.9421 395.074,348.84 395.966,181.416 396.859,181.416 397.752,213.391 398.645,245.366 399.538,245.366 400.43,77.9421 401.323,348.84 402.216,213.391 403.109,77.9421 404.002,348.84 404.894,181.416 405.787,181.416 406.68,213.391 407.573,245.366 408.466,245.366 409.358,77.9421 410.251,348.84 411.144,213.391 412.037,77.9421 412.93,348.84 413.822,181.416 414.715,181.416 415.608,213.391 416.501,245.366 417.394,245.366 418.286,77.9421 419.179,348.84 420.072,213.391 420.965,77.9421 421.858,348.84 422.75,181.416 423.643,181.416 424.536,213.391 425.429,245.366 426.322,245.366 427.214,77.9421 428.107,348.84 429,213.391 429.893,77.9421 430.786,348.84 431.678,181.416 432.571,181.416 433.464,213.391 434.357,245.366 435.25,245.366 436.142,77.9421 437.035,348.84 437.928,213.391 438.821,77.9421 439.714,348.84 440.606,181.416 441.499,181.416 442.392,213.391 443.285,245.366 444.178,245.366 445.07,77.9421 445.963,348.84 446.856,213.391 447.749,77.9421 448.642,348.84 449.534,181.416 450.427,181.416 451.32,213.391 452.213,245.366 453.106,245.366 453.998,77.9421 454.891,348.84 455.784,213.391 456.677,77.9421 457.57,348.84 458.462,181.416 459.355,181.416 460.248,213.391 461.141,245.366 462.034,245.366 462.926,77.9421 463.819,348.84 464.712,213.391 465.605,77.9421 466.498,348.84 467.39,181.416 468.283,181.416 469.176,213.391 470.069,245.366 470.962,245.366 471.854,77.9421 472.747,348.84 473.64,213.391 474.533,77.9421 475.426,348.84 476.318,181.416 477.211,181.416 478.104,213.391 478.997,245.366 479.89,245.366 480.782,77.9421 481.675,348.84 482.568,213.391 483.461,77.9421 484.354,348.84 485.246,181.416 486.139,181.416 487.032,213.391 487.925,245.366 488.818,245.366 489.71,77.9421 490.603,348.84 491.496,213.391 492.389,77.9421 493.282,348.84 494.174,181.416 495.067,181.416 495.96,213.391 496.853,245.366 497.746,245.366 498.638,77.9421 499.531,348.84 500.424,213.391 501.317,77.9421 502.21,348.84 503.102,181.416 503.995,181.416 504.888,213.391 505.781,245.366 506.674,245.366 507.566,77.9421 508.459,348.84 509.352,213.391 510.245,77.9421 511.138,348.84 512.03,181.416 512.923,181.416 513.816,213.391 514.709,245.366 515.602,245.366 516.494,77.9421 517.387,348.84"/>
  </g>
 </g>
</svg>
